{
  "asset": {
    "generator": "Khronos glTF Blender I/O v1.4.40",
    "version": "2.0"
  },
  "scene": 0,
  "scenes": [
    {
      "name": "Scene",
      "nodes": [
        4,
        9,
        14,
        15,
        19
      ]
    }
  ],
  "nodes": [
    {
      "name": "Bone.003",
      "rotation": [
        0.3265971541404724,
        0.15518301725387573,
        -0.15727540850639343,
        0.9189760684967041
      ],
      "scale": [
        0.9999999403953552,
        1,
        0.9999999403953552
      ],
      "translation": [
        0,
        3.122427463531494,
        -1.7881393432617188e-7
      ]
    },
    {
      "children": [
        0
      ],
      "name": "Bone.002",
      "rotation": [
        0.08039393275976181,
        0.08716774731874466,
        0.2200699746608734,
        0.9682499170303345
      ],
      "scale": [
        0.9999999403953552,
        0.9999999403953552,
        0.9999998807907104
      ],
      "translation": [
        0,
        2.495515823364258,
        -5.960464477539063e-8
      ]
    },
    {
      "children": [
        1
      ],
      "name": "Bone.001",
      "rotation": [
        -0.17812849581241608,
        0.04691949486732483,
        0.40028706192970276,
        0.8976854085922241
      ],
      "scale": [
        0.9999998807907104,
        1,
        1
      ],
      "translation": [
        -3.3527612686157227e-8,
        1,
        -5.960464477539063e-8
      ]
    },
    {
      "children": [
        2
      ],
      "name": "Bone",
      "rotation": [
        -0.2718680799007416,
        -0.4804321825504303,
        0.013144892640411854,
        0.8337265253067017
      ],
      "translation": [
        -0.2678491771221161,
        0.4139725863933563,
        0.000008434848496108316
      ]
    },
    {
      "children": [
        3
      ],
      "name": "Armature.001",
      "rotation": [
        0.5601548552513123,
        0.44894567131996155,
        -0.4405122995376587,
        0.5390948057174683
      ],
      "scale": [
        0.04987337440252304,
        0.04987337440252304,
        0.04987337440252304
      ],
      "translation": [
        -0.6605651378631592,
        8.048385620117188,
        -3.1951541900634766
      ]
    },
    {
      "name": "Bone.003",
      "rotation": [
        0.2149544209241867,
        0.0679374411702156,
        -0.33374130725860596,
        0.915311872959137
      ],
      "scale": [
        1.0000001192092896,
        1,
        1
      ],
      "translation": [
        2.384185791015625e-7,
        3.122427463531494,
        0
      ]
    },
    {
      "children": [
        5
      ],
      "name": "Bone.002",
      "rotation": [
        0.21852758526802063,
        0.09467131644487381,
        0.33169081807136536,
        0.9128332138061523
      ],
      "scale": [
        1,
        0.9999998211860657,
        1
      ],
      "translation": [
        0,
        2.495516061782837,
        5.960464477539063e-8
      ]
    },
    {
      "children": [
        6
      ],
      "name": "Bone.001",
      "rotation": [
        -0.1717916876077652,
        -0.04345887899398804,
        0.21729858219623566,
        0.9598855376243591
      ],
      "scale": [
        0.9999998807907104,
        0.9999999403953552,
        0.9999999403953552
      ],
      "translation": [
        4.470348358154297e-8,
        1,
        0
      ]
    },
    {
      "children": [
        7
      ],
      "name": "Bone",
      "rotation": [
        -0.26189860701560974,
        -0.33242687582969666,
        0.05381549522280693,
        0.9044365286827087
      ],
      "translation": [
        -0.26785120368003845,
        0.4139726758003235,
        0.000010178271622862667
      ]
    },
    {
      "children": [
        8
      ],
      "name": "Armature.003",
      "rotation": [
        0.48765677213668823,
        -0.4979151487350464,
        0.5196301341056824,
        0.4942225515842438
      ],
      "scale": [
        0.046699158847332,
        0.0466991551220417,
        0.0466991551220417
      ],
      "translation": [
        -1.857434630393982,
        7.931189060211182,
        -1.8657039403915405
      ]
    },
    {
      "name": "Bone.003",
      "rotation": [
        0.31498512625694275,
        0.5810789465904236,
        -0.11115948110818863,
        0.742142379283905
      ],
      "translation": [
        0,
        3.1224279403686523,
        -1.3969838619232178e-9
      ]
    },
    {
      "children": [
        10
      ],
      "name": "Bone.002",
      "rotation": [
        -0.01293631736189127,
        0.17233867943286896,
        0.21217942237854004,
        0.9618273377418518
      ],
      "scale": [
        1,
        1.0000001192092896,
        1
      ],
      "translation": [
        -1.7881393432617188e-7,
        2.4955155849456787,
        8.940696716308594e-8
      ]
    },
    {
      "children": [
        11
      ],
      "name": "Bone.001",
      "rotation": [
        -0.10962989926338196,
        0.5581216812133789,
        -0.1900462955236435,
        0.8002274036407471
      ],
      "scale": [
        1.0000001192092896,
        1,
        1.0000001192092896
      ],
      "translation": [
        2.9802322387695312e-8,
        1,
        0
      ]
    },
    {
      "children": [
        12
      ],
      "name": "Bone",
      "rotation": [
        0.4829151928424835,
        -0.6589274406433105,
        0.2995208203792572,
        0.4928435981273651
      ],
      "scale": [
        1,
        0.9999999403953552,
        1
      ],
      "translation": [
        -0.2678382694721222,
        0.4139672517776489,
        -0.00000399543387175072
      ]
    },
    {
      "children": [
        13
      ],
      "name": "Armature.002",
      "rotation": [
        0,
        0,
        -0.7071067094802856,
        0.7071068286895752
      ],
      "scale": [
        0.03264916315674782,
        0.03264916315674782,
        0.03264916315674782
      ],
      "translation": [
        -0.45209866762161255,
        8.041826248168945,
        -4.59979772567749
      ]
    },
    {
      "mesh": 0,
      "name": "SnipSign_Neon",
      "rotation": [
        0.7071067690849304,
        0,
        0,
        0.7071068286895752
      ],
      "translation": [
        -0.7601351737976074,
        8.239089965820312,
        -1.5142946243286133
      ]
    },
    {
      "name": "Bone.002",
      "rotation": [
        0.058610327541828156,
        0.36904725432395935,
        -0.08869100362062454,
        0.9233108162879944
      ],
      "scale": [
        0.9999999403953552,
        1,
        1.0000001192092896
      ],
      "translation": [
        -1.7881393432617188e-7,
        1.2608211040496826,
        3.196562751908022e-14
      ]
    },
    {
      "children": [
        16
      ],
      "name": "Bone.001",
      "rotation": [
        0.28047624230384827,
        -0.004200261551886797,
        0.329117089509964,
        0.9016636610031128
      ],
      "translation": [
        0,
        1,
        0
      ]
    },
    {
      "children": [
        17
      ],
      "name": "Bone"
    },
    {
      "children": [
        18
      ],
      "name": "Dish Armature",
      "rotation": [
        -0.17798282206058502,
        -0.1779826581478119,
        -0.6843405961990356,
        0.6843407154083252
      ],
      "scale": [
        0.04240238666534424,
        0.07001298666000366,
        0.04240238666534424
      ],
      "translation": [
        -0.6256080269813538,
        8.052334785461426,
        -2.7878615856170654
      ]
    }
  ],
  "animations": [
    {
      "channels": [
        {
          "sampler": 0,
          "target": {
            "node": 15,
            "path": "rotation"
          }
        }
      ],
      "name": "SnipSign_NeonAction",
      "samplers": [
        {
          "input": 8,
          "interpolation": "LINEAR",
          "output": 9
        }
      ]
    }
  ],
  "materials": [
    {
      "doubleSided": true,
      "emissiveFactor": [
        1,
        1,
        1
      ],
      "name": "SnipSign_Emit",
      "pbrMetallicRoughness": {}
    },
    {
      "doubleSided": true,
      "name": "Sandblasted silver metal",
      "pbrMetallicRoughness": {
        "baseColorFactor": [
          0.622467577457428,
          0.622467577457428,
          0.622467577457428,
          1
        ]
      }
    }
  ],
  "meshes": [
    {
      "name": "Curve.027",
      "primitives": [
        {
          "attributes": {
            "POSITION": 0,
            "NORMAL": 1,
            "TEXCOORD_0": 2
          },
          "indices": 3,
          "material": 0
        },
        {
          "attributes": {
            "POSITION": 4,
            "NORMAL": 5,
            "TEXCOORD_0": 6
          },
          "indices": 7,
          "material": 1
        }
      ]
    }
  ],
  "accessors": [
    {
      "bufferView": 0,
      "componentType": 5126,
      "count": 17888,
      "max": [
        0.5864207744598389,
        0.005013161804527044,
        0.004772896878421307
      ],
      "min": [
        -0.5911420583724976,
        -0.00500000175088644,
        -1.1745020151138306
      ],
      "type": "VEC3"
    },
    {
      "bufferView": 1,
      "componentType": 5126,
      "count": 17888,
      "type": "VEC3"
    },
    {
      "bufferView": 2,
      "componentType": 5126,
      "count": 17888,
      "type": "VEC2"
    },
    {
      "bufferView": 3,
      "componentType": 5123,
      "count": 98208,
      "type": "SCALAR"
    },
    {
      "bufferView": 4,
      "componentType": 5126,
      "count": 8770,
      "max": [
        0.617343544960022,
        0.030028019100427628,
        0.10864724218845367
      ],
      "min": [
        -0.6067356467247009,
        -0.0913117453455925,
        -1.1970354318618774
      ],
      "type": "VEC3"
    },
    {
      "bufferView": 5,
      "componentType": 5126,
      "count": 8770,
      "type": "VEC3"
    },
    {
      "bufferView": 6,
      "componentType": 5126,
      "count": 8770,
      "type": "VEC2"
    },
    {
      "bufferView": 7,
      "componentType": 5123,
      "count": 29655,
      "type": "SCALAR"
    },
    {
      "bufferView": 8,
      "componentType": 5126,
      "count": 224,
      "max": [
        9.291666666666666
      ],
      "min": [
        0
      ],
      "type": "SCALAR"
    },
    {
      "bufferView": 9,
      "componentType": 5126,
      "count": 224,
      "type": "VEC4"
    }
  ],
  "bufferViews": [
    {
      "buffer": 0,
      "byteLength": 214656,
      "byteOffset": 0
    },
    {
      "buffer": 0,
      "byteLength": 214656,
      "byteOffset": 214656
    },
    {
      "buffer": 0,
      "byteLength": 143104,
      "byteOffset": 429312
    },
    {
      "buffer": 0,
      "byteLength": 196416,
      "byteOffset": 572416
    },
    {
      "buffer": 0,
      "byteLength": 105240,
      "byteOffset": 768832
    },
    {
      "buffer": 0,
      "byteLength": 105240,
      "byteOffset": 874072
    },
    {
      "buffer": 0,
      "byteLength": 70160,
      "byteOffset": 979312
    },
    {
      "buffer": 0,
      "byteLength": 59312,
      "byteOffset": 1049472
    },
    {
      "buffer": 0,
      "byteLength": 896,
      "byteOffset": 1108784
    },
    {
      "buffer": 0,
      "byteLength": 3584,
      "byteOffset": 1109680
    }
  ],
  "buffers": [
    {
      "uri": "SnipSign_neon_data.bin",
      "byteLength": 1113264
    }
  ]
}